<?xml version="1.0" encoding="UTF-8"?>
<svg xmlns="http://www.w3.org/2000/svg" xmlns:xlink="http://www.w3.org/1999/xlink" width="24px" height="24px" viewBox="0 0 24 24" version="1.1">
<g id="surface1">
<path style=" stroke:none;fill-rule:nonzero;fill:rgb(0%,0%,0%);fill-opacity:1;" d="M 12.480469 0 C 12.214844 0 12 0.214844 12 0.480469 L 12 1.441406 C 12 1.703125 12.214844 1.921875 12.480469 1.921875 C 12.746094 1.921875 12.960938 1.703125 12.960938 1.441406 L 12.960938 0.480469 C 12.960938 0.214844 12.746094 0 12.480469 0 Z M 9.089844 1.410156 C 8.96875 1.410156 8.839844 1.453125 8.746094 1.546875 C 8.558594 1.734375 8.558594 2.03125 8.746094 2.21875 L 9.421875 2.910156 C 9.515625 3.003906 9.640625 3.046875 9.765625 3.046875 C 9.890625 3.046875 10.015625 3.003906 10.109375 2.910156 C 10.296875 2.722656 10.296875 2.40625 10.109375 2.21875 L 9.421875 1.546875 C 9.328125 1.453125 9.210938 1.410156 9.089844 1.410156 Z M 15.871094 1.410156 C 15.75 1.410156 15.632812 1.453125 15.539062 1.546875 L 14.851562 2.21875 C 14.664062 2.40625 14.664062 2.722656 14.851562 2.910156 C 14.945312 3.003906 15.070312 3.046875 15.195312 3.046875 C 15.320312 3.046875 15.445312 3.003906 15.539062 2.910156 L 16.214844 2.21875 C 16.402344 2.03125 16.402344 1.734375 16.214844 1.546875 C 16.121094 1.453125 15.992188 1.410156 15.871094 1.410156 Z M 12.480469 2.878906 C 11.421875 2.878906 10.558594 3.742188 10.558594 4.800781 L 10.558594 5.28125 L 14.398438 5.28125 L 14.398438 4.800781 C 14.398438 3.742188 13.539062 2.878906 12.480469 2.878906 Z M 7.679688 4.320312 C 7.414062 4.320312 7.199219 4.535156 7.199219 4.800781 C 7.199219 5.0625 7.414062 5.28125 7.679688 5.28125 L 8.640625 5.28125 C 8.90625 5.28125 9.121094 5.0625 9.121094 4.800781 C 9.121094 4.535156 8.90625 4.320312 8.640625 4.320312 Z M 16.320312 4.320312 C 16.054688 4.320312 15.839844 4.535156 15.839844 4.800781 C 15.839844 5.0625 16.054688 5.28125 16.320312 5.28125 L 17.28125 5.28125 C 17.546875 5.28125 17.761719 5.0625 17.761719 4.800781 C 17.761719 4.535156 17.546875 4.320312 17.28125 4.320312 Z M 1.335938 6.238281 C 0.601562 6.238281 0 6.832031 0 7.558594 L 0 19.320312 C 0 20.046875 0.601562 20.640625 1.335938 20.640625 L 3.359375 20.640625 C 3.359375 22.226562 4.652344 23.519531 6.238281 23.519531 C 7.828125 23.519531 9.121094 22.226562 9.121094 20.640625 L 15.839844 20.640625 C 15.839844 22.226562 17.132812 23.519531 18.71875 23.519531 C 20.308594 23.519531 21.601562 22.226562 21.601562 20.640625 L 22.664062 20.640625 C 23.398438 20.640625 24 20.046875 24 19.320312 L 24 15.960938 C 24 15.035156 23.34375 14.09375 23.28125 14.011719 L 18.945312 7.304688 C 18.933594 7.289062 18.914062 7.261719 18.898438 7.246094 L 18.808594 7.15625 C 18.4375 6.707031 18.066406 6.238281 17.265625 6.238281 Z M 15.359375 8.640625 L 18.644531 8.640625 L 22.078125 13.921875 L 15.359375 13.921875 Z M 6.71875 10.078125 L 7.679688 10.078125 L 7.679688 12 L 9.601562 12 L 9.601562 12.960938 L 7.679688 12.960938 L 7.679688 14.878906 L 6.71875 14.878906 L 6.71875 12.960938 L 4.800781 12.960938 L 4.800781 12 L 6.71875 12 Z M 6.238281 18.71875 C 7.300781 18.71875 8.160156 19.582031 8.160156 20.640625 C 8.160156 21.699219 7.300781 22.558594 6.238281 22.558594 C 5.179688 22.558594 4.320312 21.699219 4.320312 20.640625 C 4.320312 19.582031 5.179688 18.71875 6.238281 18.71875 Z M 18.71875 18.71875 C 19.78125 18.71875 20.640625 19.582031 20.640625 20.640625 C 20.640625 21.699219 19.78125 22.558594 18.71875 22.558594 C 17.660156 22.558594 16.800781 21.699219 16.800781 20.640625 C 16.800781 19.582031 17.660156 18.71875 18.71875 18.71875 Z M 18.71875 18.71875 "/>
</g>
</svg>
