<?xml version="1.0" encoding="UTF-8"?>
<svg xmlns="http://www.w3.org/2000/svg" xmlns:xlink="http://www.w3.org/1999/xlink" width="24px" height="24px" viewBox="0 0 24 24" version="1.1">
<g id="surface1">
<path style=" stroke:none;fill-rule:nonzero;fill:rgb(100%,27.843137%,24.313725%);fill-opacity:1;" d="M 11.5 4.015625 L 9.296875 4.015625 C 9.113281 4.015625 8.960938 4.167969 8.960938 4.355469 L 8.960938 6.382812 C 8.960938 6.570312 9.113281 6.722656 9.296875 6.722656 L 11.5 6.722656 Z M 11.5 4.015625 "/>
<path style=" stroke:none;fill-rule:nonzero;fill:rgb(39.607843%,73.333333%,94.901961%);fill-opacity:1;" d="M 11.472656 6.714844 L 13.566406 6.714844 C 13.75 6.714844 13.902344 6.5625 13.902344 6.378906 L 13.902344 4.363281 C 13.902344 4.175781 13.75 4.023438 13.566406 4.023438 L 11.472656 4.023438 Z M 11.472656 6.714844 "/>
<path style=" stroke:none;fill-rule:nonzero;fill:rgb(87.058824%,88.235294%,88.627451%);fill-opacity:1;" d="M 0.488281 17.71875 L 0.488281 12.382812 C 0.488281 11.757812 0.871094 11.179688 1.496094 10.867188 L 2.695312 10.269531 C 2.847656 10.191406 2.992188 10.097656 3.121094 9.984375 L 7.410156 6.238281 C 7.667969 5.984375 8.039062 5.839844 8.429688 5.839844 L 21.574219 5.839844 C 22.6875 5.839844 23.59375 6.621094 23.59375 7.589844 L 23.59375 17.71875 C 23.59375 18.6875 22.6875 19.46875 21.574219 19.46875 L 2.507812 19.46875 C 1.390625 19.472656 0.488281 18.6875 0.488281 17.71875 Z M 0.488281 17.71875 "/>
<path style=" stroke:none;fill-rule:nonzero;fill:rgb(60.784314%,64.705882%,65.882353%);fill-opacity:1;" d="M 2.328125 19.425781 C 2.328125 17.835938 3.617188 16.546875 5.207031 16.546875 C 6.800781 16.546875 8.089844 17.835938 8.089844 19.425781 M 21.121094 19.425781 C 21.121094 17.835938 19.828125 16.546875 18.238281 16.546875 C 16.648438 16.546875 15.359375 17.835938 15.359375 19.425781 "/>
<path style=" stroke:none;fill-rule:nonzero;fill:rgb(16.862745%,23.137255%,27.843137%);fill-opacity:1;" d="M 7.3125 19.425781 C 7.3125 20.589844 6.371094 21.53125 5.207031 21.53125 C 4.046875 21.53125 3.105469 20.589844 3.105469 19.425781 C 3.105469 18.265625 4.046875 17.324219 5.207031 17.324219 C 6.371094 17.324219 7.3125 18.265625 7.3125 19.425781 Z M 18.238281 17.324219 C 17.078125 17.324219 16.136719 18.265625 16.136719 19.425781 C 16.136719 20.589844 17.078125 21.53125 18.238281 21.53125 C 19.402344 21.53125 20.34375 20.589844 20.34375 19.425781 C 20.34375 18.265625 19.402344 17.324219 18.238281 17.324219 Z M 18.238281 17.324219 "/>
<path style=" stroke:none;fill-rule:nonzero;fill:rgb(0%,69.411765%,100%);fill-opacity:1;" d="M 8.308594 7.25 L 11 7.25 C 11.195312 7.25 11.355469 7.410156 11.355469 7.605469 L 11.355469 10.773438 C 11.355469 10.96875 11.195312 11.128906 11 11.128906 L 4.992188 11.128906 C 4.671875 11.128906 4.515625 10.738281 4.746094 10.515625 L 8.0625 7.347656 C 8.128906 7.285156 8.214844 7.25 8.308594 7.25 Z M 8.308594 7.25 "/>
<path style=" stroke:none;fill-rule:nonzero;fill:rgb(100%,27.843137%,24.313725%);fill-opacity:1;" d="M 20.640625 9.078125 L 20.640625 10.65625 C 20.640625 10.710938 20.59375 10.757812 20.539062 10.757812 L 19.035156 10.757812 L 19.035156 12.261719 C 19.035156 12.316406 18.992188 12.363281 18.933594 12.363281 L 17.359375 12.363281 C 17.300781 12.363281 17.257812 12.316406 17.257812 12.261719 L 17.257812 10.757812 L 15.753906 10.757812 C 15.699219 10.757812 15.652344 10.710938 15.652344 10.65625 L 15.652344 9.078125 C 15.652344 9.023438 15.699219 8.980469 15.753906 8.980469 L 17.257812 8.980469 L 17.257812 7.476562 C 17.257812 7.417969 17.300781 7.375 17.359375 7.375 L 18.933594 7.375 C 18.992188 7.375 19.035156 7.417969 19.035156 7.476562 L 19.035156 8.980469 L 20.539062 8.980469 C 20.59375 8.980469 20.640625 9.023438 20.640625 9.078125 Z M 23.59375 14.226562 L 0.488281 14.226562 L 0.488281 16.082031 L 23.59375 16.082031 Z M 23.59375 14.226562 "/>
<path style=" stroke:none;fill-rule:nonzero;fill:rgb(60.784314%,64.705882%,65.882353%);fill-opacity:1;" d="M 6.167969 19.425781 C 6.167969 19.957031 5.738281 20.386719 5.207031 20.386719 C 4.679688 20.386719 4.25 19.957031 4.25 19.425781 C 4.25 18.898438 4.679688 18.46875 5.207031 18.46875 C 5.738281 18.46875 6.167969 18.898438 6.167969 19.425781 Z M 18.238281 18.46875 C 17.710938 18.46875 17.28125 18.898438 17.28125 19.425781 C 17.28125 19.957031 17.710938 20.386719 18.238281 20.386719 C 18.769531 20.386719 19.199219 19.957031 19.199219 19.425781 C 19.199219 18.898438 18.769531 18.46875 18.238281 18.46875 Z M 18.238281 18.46875 "/>
</g>
</svg>
