<?xml version="1.0" encoding="UTF-8"?>
<svg xmlns="http://www.w3.org/2000/svg" xmlns:xlink="http://www.w3.org/1999/xlink" width="24px" height="24px" viewBox="0 0 24 24" version="1.1">
<g id="surface1">
<path style=" stroke:none;fill-rule:nonzero;fill:rgb(0%,0%,0%);fill-opacity:1;" d="M 24 12.203125 C 24 12.183594 24 12.164062 23.996094 12.144531 L 23.144531 7.039062 C 23.117188 6.871094 22.972656 6.746094 22.800781 6.746094 L 21.113281 6.746094 L 21.113281 6.265625 C 21.113281 5.753906 20.699219 5.335938 20.1875 5.335938 C 19.671875 5.335938 19.257812 5.753906 19.257812 6.265625 L 19.257812 6.746094 L 17.148438 6.746094 C 16.953125 6.746094 16.800781 6.902344 16.800781 7.09375 L 16.800781 8.082031 L 15.292969 8.082031 L 15.292969 7.09375 C 15.292969 6.902344 15.140625 6.746094 14.945312 6.746094 L 14.480469 6.746094 L 14.480469 4.957031 C 14.480469 4.859375 14.441406 4.765625 14.371094 4.699219 C 14.296875 4.636719 14.203125 4.601562 14.105469 4.609375 L 1.132812 5.695312 C 0.953125 5.710938 0.8125 5.863281 0.8125 6.042969 L 0.8125 6.746094 L 0.347656 6.746094 C 0.15625 6.746094 0 6.902344 0 7.09375 L 0 16.011719 C 0 16.550781 0.4375 16.988281 0.972656 16.988281 L 3.492188 16.988281 C 3.484375 17.050781 3.484375 17.113281 3.484375 17.175781 C 3.484375 18.398438 4.476562 19.390625 5.699219 19.390625 C 6.917969 19.390625 7.914062 18.398438 7.914062 17.175781 C 7.914062 17.113281 7.910156 17.050781 7.90625 16.988281 L 17.234375 16.988281 C 17.230469 17.050781 17.226562 17.113281 17.226562 17.175781 C 17.226562 18.398438 18.21875 19.390625 19.441406 19.390625 C 20.664062 19.390625 21.65625 18.398438 21.65625 17.175781 C 21.65625 17.113281 21.652344 17.050781 21.648438 16.988281 L 23.652344 16.988281 C 23.84375 16.988281 24 16.832031 24 16.640625 Z M 19.953125 6.265625 C 19.953125 6.136719 20.058594 6.03125 20.183594 6.03125 C 20.3125 6.03125 20.417969 6.136719 20.417969 6.265625 L 20.417969 6.746094 L 19.953125 6.746094 Z M 17.496094 7.441406 L 22.507812 7.441406 L 23.304688 12.230469 L 23.304688 14.960938 L 17.496094 14.960938 Z M 13.785156 6.746094 L 13.074219 6.746094 L 13.074219 5.394531 L 13.785156 5.335938 Z M 3.167969 6.222656 L 4.453125 6.117188 L 4.453125 6.746094 L 3.167969 6.746094 Z M 5.148438 6.058594 L 6.433594 5.949219 C 6.433594 5.949219 6.433594 5.949219 6.433594 5.953125 L 6.433594 6.746094 L 5.148438 6.746094 Z M 7.125 5.890625 L 8.414062 5.785156 L 8.414062 6.746094 L 7.128906 6.746094 L 7.128906 5.953125 C 7.128906 5.929688 7.128906 5.910156 7.125 5.890625 Z M 9.109375 5.726562 L 10.398438 5.617188 L 10.398438 6.746094 L 9.109375 6.746094 Z M 11.09375 5.558594 L 12.378906 5.453125 L 12.378906 6.746094 L 11.09375 6.746094 Z M 1.507812 6.363281 L 2.472656 6.28125 L 2.472656 6.746094 L 1.507812 6.746094 Z M 14.597656 7.441406 L 14.597656 14.960938 L 5.703125 14.960938 C 5.703125 14.960938 5.699219 14.960938 5.699219 14.960938 C 5.695312 14.960938 0.695312 14.960938 0.695312 14.960938 L 0.695312 7.441406 Z M 0.972656 16.292969 C 0.820312 16.292969 0.695312 16.167969 0.695312 16.011719 L 0.695312 15.65625 L 4.089844 15.65625 C 3.914062 15.839844 3.769531 16.054688 3.667969 16.292969 Z M 5.699219 18.695312 C 4.859375 18.695312 4.179688 18.011719 4.179688 17.175781 C 4.179688 16.335938 4.859375 15.65625 5.699219 15.65625 C 6.535156 15.65625 7.21875 16.335938 7.21875 17.175781 C 7.21875 18.011719 6.535156 18.695312 5.699219 18.695312 Z M 8.824219 16.292969 L 7.992188 15.65625 L 17.832031 15.65625 C 17.65625 15.839844 17.515625 16.054688 17.410156 16.292969 Z M 19.441406 18.695312 C 18.605469 18.695312 17.921875 18.011719 17.921875 17.175781 C 17.921875 16.335938 18.605469 15.65625 19.441406 15.65625 C 20.28125 15.65625 20.960938 16.335938 20.960938 17.175781 C 20.960938 18.015625 20.28125 18.695312 19.441406 18.695312 Z M 23.304688 16.292969 L 22.441406 16.292969 L 21.609375 15.65625 L 23.304688 15.65625 Z M 23.304688 16.292969 "/>
<path style=" stroke:none;fill-rule:nonzero;fill:rgb(0%,0%,0%);fill-opacity:1;" d="M 22.148438 12.398438 C 22.339844 12.398438 22.496094 12.242188 22.496094 12.050781 L 22.496094 11.257812 C 22.496094 11.238281 22.492188 11.222656 22.488281 11.203125 L 22.019531 8.371094 C 21.992188 8.207031 21.847656 8.082031 21.675781 8.082031 L 19.605469 8.082031 C 19.414062 8.082031 19.257812 8.238281 19.257812 8.429688 L 19.257812 12.050781 C 19.257812 12.242188 19.414062 12.398438 19.605469 12.398438 Z M 19.953125 11.703125 L 19.953125 9.972656 L 21.800781 11.324219 L 21.800781 11.703125 Z M 19.953125 11.703125 "/>
<path style=" stroke:none;fill-rule:nonzero;fill:rgb(0%,0%,0%);fill-opacity:1;" d="M 5.699219 16.554688 C 5.355469 16.554688 5.074219 16.832031 5.074219 17.175781 C 5.074219 17.519531 5.355469 17.796875 5.699219 17.796875 C 6.042969 17.796875 6.320312 17.519531 6.320312 17.175781 C 6.320312 16.832031 6.042969 16.554688 5.699219 16.554688 Z M 5.699219 16.554688 "/>
<path style=" stroke:none;fill-rule:nonzero;fill:rgb(0%,0%,0%);fill-opacity:1;" d="M 19.441406 16.554688 C 19.097656 16.554688 18.820312 16.832031 18.820312 17.175781 C 18.820312 17.519531 19.097656 17.796875 19.441406 17.796875 C 19.785156 17.796875 20.0625 17.519531 20.0625 17.175781 C 20.0625 16.832031 19.785156 16.554688 19.441406 16.554688 Z M 19.441406 16.554688 "/>
<path style=" stroke:none;fill-rule:nonzero;fill:rgb(0%,0%,0%);fill-opacity:1;" d="M 8.117188 11.730469 L 8.464844 11.730469 L 8.464844 13.558594 C 8.464844 13.75 8.621094 13.90625 8.8125 13.90625 L 13.113281 13.90625 C 13.304688 13.90625 13.460938 13.75 13.460938 13.558594 L 13.460938 8.84375 C 13.460938 8.652344 13.304688 8.496094 13.113281 8.496094 L 8.8125 8.496094 C 8.621094 8.496094 8.464844 8.652344 8.464844 8.84375 L 8.464844 10.671875 L 8.117188 10.671875 C 7.925781 10.671875 7.769531 10.828125 7.769531 11.019531 L 7.769531 11.382812 C 7.769531 11.578125 7.925781 11.730469 8.117188 11.730469 Z M 9.160156 9.191406 L 12.765625 9.191406 L 12.765625 13.210938 L 9.160156 13.210938 L 9.160156 11.730469 L 9.480469 11.730469 C 9.671875 11.730469 9.828125 11.578125 9.828125 11.382812 L 9.828125 11.019531 C 9.828125 10.828125 9.671875 10.671875 9.480469 10.671875 L 9.160156 10.671875 Z M 9.160156 9.191406 "/>
</g>
</svg>
