<?xml version="1.0" encoding="UTF-8"?>
<svg xmlns="http://www.w3.org/2000/svg" xmlns:xlink="http://www.w3.org/1999/xlink" width="24px" height="24px" viewBox="0 0 24 24" version="1.1">
<g id="surface1">
<path style=" stroke:none;fill-rule:nonzero;fill:rgb(16.078431%,67.058824%,88.627451%);fill-opacity:1;" d="M 10.183594 12.726562 L 13.09375 12.726562 L 13.09375 17.816406 L 10.183594 17.816406 Z M 10.183594 12.726562 "/>
<path style=" stroke:none;fill-rule:nonzero;fill:rgb(0%,0%,0%);fill-opacity:1;" d="M 13.09375 18.183594 L 10.183594 18.183594 C 9.984375 18.183594 9.820312 18.019531 9.820312 17.816406 L 9.820312 12.726562 C 9.820312 12.523438 9.984375 12.363281 10.183594 12.363281 L 13.09375 12.363281 C 13.292969 12.363281 13.457031 12.523438 13.457031 12.726562 L 13.457031 17.816406 C 13.457031 18.019531 13.292969 18.183594 13.09375 18.183594 Z M 10.546875 17.453125 L 12.730469 17.453125 L 12.730469 13.089844 L 10.546875 13.089844 Z M 10.546875 17.453125 "/>
<path style=" stroke:none;fill-rule:nonzero;fill:rgb(16.078431%,67.058824%,88.627451%);fill-opacity:1;" d="M 0.363281 12.726562 L 10.183594 12.726562 L 10.183594 17.816406 L 0.363281 17.816406 Z M 0.363281 12.726562 "/>
<path style=" stroke:none;fill-rule:nonzero;fill:rgb(0%,0%,0%);fill-opacity:1;" d="M 10.183594 18.183594 L 0.363281 18.183594 C 0.164062 18.183594 0 18.019531 0 17.816406 L 0 12.726562 C 0 12.523438 0.164062 12.363281 0.363281 12.363281 L 10.183594 12.363281 C 10.382812 12.363281 10.546875 12.523438 10.546875 12.726562 L 10.546875 17.816406 C 10.546875 18.019531 10.382812 18.183594 10.183594 18.183594 Z M 0.726562 17.453125 L 9.820312 17.453125 L 9.820312 13.089844 L 0.726562 13.089844 Z M 0.726562 17.453125 "/>
<path style=" stroke:none;fill-rule:nonzero;fill:rgb(16.078431%,67.058824%,88.627451%);fill-opacity:1;" d="M 17.457031 7.632812 L 17.457031 6.90625 C 17.457031 6.503906 17.132812 6.179688 16.730469 6.179688 C 16.328125 6.179688 16.003906 6.503906 16.003906 6.90625 L 16.003906 7.632812 "/>
<path style=" stroke:none;fill-rule:nonzero;fill:rgb(0%,0%,0%);fill-opacity:1;" d="M 17.457031 7.996094 C 17.257812 7.996094 17.09375 7.835938 17.09375 7.632812 L 17.09375 6.90625 C 17.09375 6.707031 16.929688 6.542969 16.730469 6.542969 C 16.53125 6.542969 16.367188 6.707031 16.367188 6.90625 L 16.367188 7.632812 C 16.367188 7.835938 16.203125 7.996094 16.003906 7.996094 C 15.800781 7.996094 15.640625 7.835938 15.640625 7.632812 L 15.640625 6.90625 C 15.640625 6.304688 16.128906 5.816406 16.730469 5.816406 C 17.332031 5.816406 17.820312 6.304688 17.820312 6.90625 L 17.820312 7.632812 C 17.820312 7.835938 17.660156 7.996094 17.457031 7.996094 Z M 17.457031 7.996094 "/>
<path style=" stroke:none;fill-rule:nonzero;fill:rgb(16.078431%,67.058824%,88.627451%);fill-opacity:1;" d="M 19 7.632812 L 13.089844 7.632812 L 13.089844 17.816406 L 21.792969 17.816406 C 22.421875 17.796875 23 17.46875 23.335938 16.9375 C 23.675781 16.410156 23.730469 15.75 23.484375 15.171875 L 20.679688 8.691406 C 20.386719 8.03125 19.722656 7.613281 19 7.632812 Z M 19 7.632812 "/>
<path style=" stroke:none;fill-rule:nonzero;fill:rgb(0%,0%,0%);fill-opacity:1;" d="M 21.792969 18.183594 L 13.089844 18.183594 C 12.886719 18.183594 12.726562 18.019531 12.726562 17.816406 L 12.726562 7.632812 C 12.726562 7.433594 12.886719 7.269531 13.089844 7.269531 L 19 7.269531 C 19.867188 7.25 20.664062 7.753906 21.011719 8.546875 L 23.820312 15.027344 C 24.117188 15.734375 24.042969 16.542969 23.613281 17.179688 C 23.214844 17.796875 22.53125 18.175781 21.792969 18.183594 Z M 13.453125 17.453125 L 21.792969 17.453125 C 22.289062 17.453125 22.746094 17.195312 23.007812 16.777344 C 23.300781 16.347656 23.355469 15.796875 23.152344 15.316406 L 20.347656 8.835938 C 20.109375 8.308594 19.578125 7.980469 19 8 L 13.453125 8 Z M 13.453125 17.453125 "/>
<path style=" stroke:none;fill-rule:nonzero;fill:rgb(0%,0%,0%);fill-opacity:1;" d="M 13.09375 13.816406 L 22.914062 13.816406 L 22.914062 14.542969 L 13.09375 14.542969 Z M 13.09375 13.816406 "/>
<path style=" stroke:none;fill-rule:nonzero;fill:rgb(0%,0%,0%);fill-opacity:1;" d="M 0.363281 13.816406 L 10.183594 13.816406 L 10.183594 14.542969 L 0.363281 14.542969 Z M 0.363281 13.816406 "/>
<path style=" stroke:none;fill-rule:nonzero;fill:rgb(16.078431%,67.058824%,88.627451%);fill-opacity:1;" d="M 21.269531 17.464844 C 21.269531 18.261719 20.621094 18.910156 19.824219 18.910156 C 19.027344 18.910156 18.378906 18.261719 18.378906 17.464844 C 18.378906 16.664062 19.027344 16.019531 19.824219 16.019531 C 20.621094 16.019531 21.269531 16.664062 21.269531 17.464844 Z M 21.269531 17.464844 "/>
<path style=" stroke:none;fill-rule:nonzero;fill:rgb(0%,0%,0%);fill-opacity:1;" d="M 19.824219 16.019531 C 20.621094 16.019531 21.269531 16.664062 21.269531 17.464844 C 21.269531 18.261719 20.621094 18.910156 19.824219 18.910156 C 19.027344 18.910156 18.378906 18.261719 18.378906 17.464844 C 18.378906 16.664062 19.027344 16.019531 19.824219 16.019531 M 19.824219 15.289062 C 18.625 15.289062 17.652344 16.261719 17.648438 17.464844 C 17.648438 18.664062 18.625 19.636719 19.824219 19.636719 C 21.023438 19.636719 21.996094 18.664062 21.996094 17.464844 C 21.996094 16.265625 21.023438 15.292969 19.824219 15.289062 Z M 19.824219 15.289062 "/>
<path style=" stroke:none;fill-rule:nonzero;fill:rgb(0%,0%,0%);fill-opacity:1;" d="M 15.640625 16 L 14.546875 16 C 14.347656 16 14.183594 15.835938 14.183594 15.636719 C 14.183594 15.433594 14.347656 15.273438 14.546875 15.273438 L 15.640625 15.273438 C 15.839844 15.273438 16.003906 15.433594 16.003906 15.636719 C 16.003906 15.835938 15.839844 16 15.640625 16 Z M 15.640625 16 "/>
<path style=" stroke:none;fill-rule:nonzero;fill:rgb(0%,0%,0%);fill-opacity:1;" d="M 16.730469 5.453125 C 16.53125 5.453125 16.367188 5.289062 16.367188 5.089844 L 16.367188 4.359375 C 16.367188 4.160156 16.53125 3.996094 16.730469 3.996094 C 16.929688 3.996094 17.09375 4.160156 17.09375 4.359375 L 17.09375 5.089844 C 17.09375 5.289062 16.929688 5.453125 16.730469 5.453125 Z M 16.730469 5.453125 "/>
<path style=" stroke:none;fill-rule:nonzero;fill:rgb(0%,0%,0%);fill-opacity:1;" d="M 17.746094 5.710938 C 17.597656 5.710938 17.464844 5.621094 17.410156 5.484375 C 17.355469 5.347656 17.386719 5.191406 17.488281 5.089844 L 18.003906 4.574219 C 18.144531 4.4375 18.375 4.4375 18.511719 4.578125 C 18.652344 4.71875 18.65625 4.945312 18.519531 5.089844 L 18.003906 5.601562 C 17.933594 5.671875 17.84375 5.710938 17.746094 5.710938 Z M 17.746094 5.710938 "/>
<path style=" stroke:none;fill-rule:nonzero;fill:rgb(0%,0%,0%);fill-opacity:1;" d="M 15.714844 5.710938 C 15.617188 5.710938 15.527344 5.671875 15.457031 5.601562 L 14.941406 5.089844 C 14.804688 4.945312 14.808594 4.71875 14.949219 4.578125 C 15.089844 4.4375 15.316406 4.4375 15.457031 4.574219 L 15.972656 5.089844 C 16.074219 5.191406 16.105469 5.347656 16.050781 5.484375 C 15.996094 5.621094 15.863281 5.710938 15.714844 5.710938 Z M 15.714844 5.710938 "/>
<path style=" stroke:none;fill-rule:nonzero;fill:rgb(0%,0%,0%);fill-opacity:1;" d="M 23.277344 20 L 0.726562 20 C 0.527344 20 0.363281 19.835938 0.363281 19.636719 C 0.363281 19.4375 0.527344 19.273438 0.726562 19.273438 L 23.277344 19.273438 C 23.476562 19.273438 23.640625 19.4375 23.640625 19.636719 C 23.640625 19.835938 23.476562 20 23.277344 20 Z M 23.277344 20 "/>
<path style=" stroke:none;fill-rule:nonzero;fill:rgb(16.078431%,67.058824%,88.627451%);fill-opacity:1;" d="M 22.414062 12.726562 L 17.09375 12.726562 C 16.691406 12.726562 16.367188 12.402344 16.367188 12 L 16.367188 9.816406 C 16.367188 9.414062 16.691406 9.089844 17.09375 9.089844 L 20.839844 9.089844 Z M 22.414062 12.726562 "/>
<path style=" stroke:none;fill-rule:nonzero;fill:rgb(0%,0%,0%);fill-opacity:1;" d="M 22.421875 13.089844 C 22.421875 13.089844 22.417969 13.089844 22.414062 13.089844 L 17.09375 13.089844 C 16.492188 13.089844 16.003906 12.601562 16.003906 12 L 16.003906 9.816406 C 16.003906 9.214844 16.492188 8.726562 17.09375 8.726562 L 20.839844 8.726562 C 20.984375 8.726562 21.117188 8.8125 21.175781 8.945312 L 22.722656 12.519531 C 22.796875 12.632812 22.804688 12.777344 22.742188 12.894531 C 22.679688 13.015625 22.554688 13.089844 22.421875 13.089844 Z M 17.09375 9.453125 C 16.894531 9.453125 16.730469 9.617188 16.730469 9.816406 L 16.730469 12 C 16.730469 12.199219 16.894531 12.363281 17.09375 12.363281 L 21.863281 12.363281 L 20.601562 9.453125 Z M 17.09375 9.453125 "/>
<path style=" stroke:none;fill-rule:nonzero;fill:rgb(16.078431%,67.058824%,88.627451%);fill-opacity:1;" d="M 8.539062 17.464844 C 8.539062 18.261719 7.894531 18.910156 7.09375 18.910156 C 6.296875 18.910156 5.648438 18.261719 5.648438 17.464844 C 5.648438 16.664062 6.296875 16.019531 7.09375 16.019531 C 7.894531 16.019531 8.539062 16.664062 8.539062 17.464844 Z M 8.539062 17.464844 "/>
<path style=" stroke:none;fill-rule:nonzero;fill:rgb(0%,0%,0%);fill-opacity:1;" d="M 7.09375 16.019531 C 7.894531 16.019531 8.539062 16.664062 8.539062 17.464844 C 8.539062 18.261719 7.894531 18.910156 7.09375 18.910156 C 6.296875 18.910156 5.648438 18.261719 5.648438 17.464844 C 5.648438 16.664062 6.296875 16.019531 7.09375 16.019531 M 7.09375 15.289062 C 5.894531 15.289062 4.921875 16.261719 4.921875 17.464844 C 4.921875 18.664062 5.894531 19.636719 7.09375 19.636719 C 8.292969 19.636719 9.265625 18.664062 9.265625 17.464844 C 9.265625 16.265625 8.292969 15.292969 7.09375 15.289062 Z M 7.09375 15.289062 "/>
<path style=" stroke:none;fill-rule:nonzero;fill:rgb(0%,0%,0%);fill-opacity:1;" d="M 11.636719 8.726562 L 0.363281 8.726562 C 0.164062 8.726562 0 8.5625 0 8.363281 C 0 8.160156 0.164062 7.996094 0.363281 7.996094 L 11.636719 7.996094 C 11.839844 7.996094 12.003906 8.160156 12.003906 8.363281 C 12.003906 8.5625 11.839844 8.726562 11.636719 8.726562 Z M 11.636719 8.726562 "/>
<path style=" stroke:none;fill-rule:nonzero;fill:rgb(0%,0%,0%);fill-opacity:1;" d="M 11.636719 11.636719 L 0.363281 11.636719 C 0.164062 11.636719 0 11.472656 0 11.269531 C 0 11.070312 0.164062 10.90625 0.363281 10.90625 L 11.636719 10.90625 C 11.839844 10.90625 12.003906 11.070312 12.003906 11.269531 C 12.003906 11.472656 11.839844 11.636719 11.636719 11.636719 Z M 11.636719 11.636719 "/>
<path style=" stroke:none;fill-rule:nonzero;fill:rgb(0%,0%,0%);fill-opacity:1;" d="M 2.183594 13.089844 C 1.980469 13.089844 1.820312 12.925781 1.820312 12.726562 L 1.820312 8.363281 C 1.820312 8.160156 1.980469 7.996094 2.183594 7.996094 C 2.382812 7.996094 2.546875 8.160156 2.546875 8.363281 L 2.546875 12.726562 C 2.546875 12.925781 2.382812 13.089844 2.183594 13.089844 Z M 2.183594 13.089844 "/>
<path style=" stroke:none;fill-rule:nonzero;fill:rgb(0%,0%,0%);fill-opacity:1;" d="M 4.726562 11.636719 C 4.527344 11.636719 4.363281 11.472656 4.363281 11.269531 L 4.363281 8.363281 C 4.363281 8.160156 4.527344 7.996094 4.726562 7.996094 C 4.929688 7.996094 5.09375 8.160156 5.09375 8.363281 L 5.09375 11.269531 C 5.09375 11.472656 4.929688 11.636719 4.726562 11.636719 Z M 4.726562 11.636719 "/>
<path style=" stroke:none;fill-rule:nonzero;fill:rgb(0%,0%,0%);fill-opacity:1;" d="M 7.273438 11.636719 C 7.074219 11.636719 6.910156 11.472656 6.910156 11.269531 L 6.910156 8.363281 C 6.910156 8.160156 7.074219 7.996094 7.273438 7.996094 C 7.476562 7.996094 7.636719 8.160156 7.636719 8.363281 L 7.636719 11.269531 C 7.636719 11.472656 7.476562 11.636719 7.273438 11.636719 Z M 7.273438 11.636719 "/>
<path style=" stroke:none;fill-rule:nonzero;fill:rgb(0%,0%,0%);fill-opacity:1;" d="M 9.820312 11.636719 C 9.621094 11.636719 9.457031 11.472656 9.457031 11.269531 L 9.457031 8.363281 C 9.457031 8.160156 9.621094 7.996094 9.820312 7.996094 C 10.019531 7.996094 10.183594 8.160156 10.183594 8.363281 L 10.183594 11.269531 C 10.183594 11.472656 10.019531 11.636719 9.820312 11.636719 Z M 9.820312 11.636719 "/>
</g>
</svg>
