<?xml version="1.0" encoding="UTF-8"?>
<svg xmlns="http://www.w3.org/2000/svg" xmlns:xlink="http://www.w3.org/1999/xlink" width="25" height="25" viewBox="0 0 25 25" fill="none" version="1.1">
<g id="surface1">
<path style=" stroke:none;fill-rule:nonzero;fill:rgb(0%,0%,0%);fill-opacity:1;" d="M 21.023438 23.164062 C 20.964844 23.953125 20.277344 24.535156 19.488281 24.476562 C 19.234375 24.460938 19.054688 24.371094 18.832031 24.269531 C 18.832031 24.269531 14.777344 21.507812 14.539062 21.316406 C 14.136719 20.972656 13.734375 20.570312 13.554688 19.988281 C 13.496094 19.78125 12.675781 16.992188 12.675781 16.992188 L 12.304688 24.804688 L 4.078125 24.804688 L 4.277344 21.660156 L 2.328125 21.660156 C 1.148438 21.660156 0.195312 20.703125 0.195312 19.527344 C 0.195312 19.242188 0.238281 18.976562 0.34375 18.738281 C 0.34375 18.738281 2.550781 13.785156 2.96875 12.980469 C 3.578125 11.773438 4.652344 11.25 6.160156 11.296875 L 10.140625 11.296875 L 1.804688 17.273438 L 1.058594 19.019531 C 0.984375 19.167969 0.957031 19.347656 0.957031 19.527344 C 0.957031 20.273438 1.566406 20.882812 2.3125 20.882812 L 9.246094 20.882812 C 10.421875 20.882812 11.378906 19.929688 11.378906 18.75 C 11.378906 17.707031 10.632812 16.828125 9.648438 16.648438 L 11.675781 11.265625 L 12.152344 11.265625 C 13.269531 11.265625 14.152344 12.027344 14.402344 12.890625 L 16 18.648438 C 16.027344 18.738281 16.132812 18.914062 16.269531 19.019531 C 16.433594 19.140625 20.472656 21.914062 20.472656 21.914062 C 20.84375 22.195312 21.070312 22.65625 21.023438 23.164062 Z M 8.785156 10.3125 C 10.527344 10.445312 12.046875 9.148438 12.183594 7.40625 C 12.316406 5.660156 11.019531 4.140625 9.273438 4.007812 C 7.53125 3.871094 6.011719 5.167969 5.875 6.914062 C 5.742188 8.65625 7.039062 10.179688 8.785156 10.3125 Z M 10.601562 18.738281 C 10.601562 18.035156 10.066406 17.46875 9.394531 17.394531 L 8.410156 20.109375 L 9.246094 20.09375 C 9.992188 20.09375 10.601562 19.480469 10.601562 18.738281 Z M 21.660156 2.082031 L 21.660156 0.195312 L 17.886719 0.195312 L 17.886719 2.082031 L 14.742188 2.082031 L 14.742188 9.648438 L 24.804688 9.648438 L 24.804688 2.082031 Z M 18.671875 0.980469 L 20.875 0.980469 L 20.875 2.082031 L 18.671875 2.082031 Z M 19.773438 8.609375 C 18.242188 8.609375 17 7.367188 17 5.835938 C 17 4.304688 18.242188 3.0625 19.773438 3.0625 C 21.304688 3.0625 22.546875 4.304688 22.546875 5.835938 C 22.546875 7.367188 21.304688 8.609375 19.773438 8.609375 Z M 21.53125 6.359375 L 20.296875 6.359375 L 20.296875 7.59375 L 19.253906 7.59375 L 19.253906 6.359375 L 18.015625 6.359375 L 18.015625 5.316406 L 19.253906 5.316406 L 19.253906 4.078125 L 20.296875 4.078125 L 20.296875 5.316406 L 21.53125 5.316406 Z M 21.53125 6.359375 " fill="#7B8D9E"/>
</g>
</svg>
