<?xml version="1.0" encoding="UTF-8"?>
<svg xmlns="http://www.w3.org/2000/svg" xmlns:xlink="http://www.w3.org/1999/xlink" width="24px" height="24px" viewBox="0 0 24 24" version="1.1">
<g id="surface1">
<path style=" stroke:none;fill-rule:nonzero;fill:rgb(20%,24.313725%,28.235294%);fill-opacity:1;" d="M 21.320312 12.457031 C 21.253906 11.828125 20.8125 11.328125 20.195312 11.328125 L 3.550781 11.328125 C 2.929688 11.328125 2.421875 11.839844 2.421875 12.457031 L 2.421875 14.738281 L 8.082031 14.738281 L 8.539062 14.15625 L 14.910156 14.15625 L 16.386719 14.738281 L 21.59375 14.738281 Z M 21.320312 12.457031 "/>
<path style=" stroke:none;fill-rule:nonzero;fill:rgb(81.960784%,82.745098%,82.745098%);fill-opacity:1;" d="M 16.566406 9.167969 C 16.234375 8.644531 15.453125 8.214844 14.835938 8.214844 L 6.863281 8.214844 C 6.242188 8.214844 5.597656 8.703125 5.425781 9.300781 L 4.847656 11.320312 C 4.847656 11.324219 4.84375 11.328125 4.84375 11.328125 L 5.914062 11.328125 C 5.914062 11.808594 5.78125 13.925781 7.15625 14.738281 L 17.929688 14.738281 L 17.929688 11.328125 Z M 16.566406 9.167969 "/>
<path style=" stroke:none;fill-rule:nonzero;fill:rgb(100%,72.156863%,9.803922%);fill-opacity:1;" d="M 21.34375 12.65625 L 19.996094 12.65625 L 19.996094 13.753906 L 21.472656 13.753906 Z M 21.34375 12.65625 "/>
<path style=" stroke:none;fill-rule:nonzero;fill:rgb(100%,100%,100%);fill-opacity:1;" d="M 20.25 13.753906 L 19.878906 13.753906 C 19.789062 13.753906 19.71875 13.683594 19.71875 13.597656 L 19.71875 12.8125 C 19.71875 12.726562 19.789062 12.65625 19.878906 12.65625 L 20.25 12.65625 Z M 20.25 13.753906 "/>
<path style=" stroke:none;fill-rule:nonzero;fill:rgb(0%,0%,0%);fill-opacity:1;" d="M 6.707031 12.269531 C 5.28125 12.269531 4.105469 13.351562 3.953125 14.738281 L 9.460938 14.738281 C 9.3125 13.351562 8.136719 12.269531 6.707031 12.269531 Z M 6.707031 12.269531 "/>
<path style=" stroke:none;fill-rule:nonzero;fill:rgb(20%,24.313725%,28.235294%);fill-opacity:1;" d="M 4.433594 15.039062 C 4.433594 16.296875 5.453125 17.3125 6.707031 17.3125 C 7.964844 17.3125 8.980469 16.296875 8.980469 15.039062 C 8.980469 13.785156 7.964844 12.765625 6.707031 12.765625 C 5.453125 12.765625 4.433594 13.785156 4.433594 15.039062 Z M 4.433594 15.039062 "/>
<path style=" stroke:none;fill-rule:nonzero;fill:rgb(64.313725%,66.27451%,67.843137%);fill-opacity:1;" d="M 5.554688 15.039062 C 5.554688 15.675781 6.070312 16.191406 6.707031 16.191406 C 7.34375 16.191406 7.859375 15.675781 7.859375 15.039062 C 7.859375 14.402344 7.34375 13.886719 6.707031 13.886719 C 6.070312 13.886719 5.554688 14.402344 5.554688 15.039062 Z M 5.554688 15.039062 "/>
<path style=" stroke:none;fill-rule:nonzero;fill:rgb(0%,0%,0%);fill-opacity:1;" d="M 16.710938 12.269531 C 15.285156 12.269531 14.105469 13.351562 13.957031 14.738281 L 19.464844 14.738281 C 19.316406 13.351562 18.140625 12.269531 16.710938 12.269531 Z M 16.710938 12.269531 "/>
<path style=" stroke:none;fill-rule:nonzero;fill:rgb(20%,24.313725%,28.235294%);fill-opacity:1;" d="M 14.4375 15.039062 C 14.4375 16.296875 15.457031 17.3125 16.710938 17.3125 C 17.964844 17.3125 18.984375 16.296875 18.984375 15.039062 C 18.984375 13.785156 17.964844 12.765625 16.710938 12.765625 C 15.457031 12.765625 14.4375 13.785156 14.4375 15.039062 Z M 14.4375 15.039062 "/>
<path style=" stroke:none;fill-rule:nonzero;fill:rgb(64.313725%,66.27451%,67.843137%);fill-opacity:1;" d="M 15.558594 15.039062 C 15.558594 15.675781 16.074219 16.191406 16.710938 16.191406 C 17.347656 16.191406 17.863281 15.675781 17.863281 15.039062 C 17.863281 14.402344 17.347656 13.886719 16.710938 13.886719 C 16.074219 13.886719 15.558594 14.402344 15.558594 15.039062 Z M 15.558594 15.039062 "/>
<path style=" stroke:none;fill-rule:nonzero;fill:rgb(64.313725%,66.27451%,67.843137%);fill-opacity:1;" d="M 22.484375 14.855469 C 22.484375 15.085938 22.292969 15.273438 22.0625 15.273438 L 21.121094 15.273438 C 20.890625 15.273438 20.699219 15.085938 20.699219 14.855469 L 20.699219 14.171875 C 20.699219 13.941406 20.890625 13.753906 21.121094 13.753906 L 22.0625 13.753906 C 22.296875 13.753906 22.484375 13.941406 22.484375 14.171875 Z M 3.3125 14.855469 C 3.3125 15.085938 3.125 15.273438 2.894531 15.273438 L 1.949219 15.273438 C 1.71875 15.273438 1.53125 15.085938 1.53125 14.855469 L 1.53125 14.171875 C 1.53125 13.941406 1.71875 13.753906 1.949219 13.753906 L 2.894531 13.753906 C 3.125 13.753906 3.3125 13.941406 3.3125 14.171875 Z M 3.3125 14.855469 "/>
<path style=" stroke:none;fill-rule:nonzero;fill:rgb(100%,72.156863%,9.803922%);fill-opacity:1;" d="M 2.421875 12.65625 L 3.644531 12.65625 L 3.644531 13.753906 L 2.421875 13.753906 Z M 2.421875 12.65625 "/>
<path style=" stroke:none;fill-rule:nonzero;fill:rgb(100%,100%,100%);fill-opacity:1;" d="M 3.386719 13.753906 L 3.757812 13.753906 C 3.847656 13.753906 3.917969 13.683594 3.917969 13.597656 L 3.917969 12.8125 C 3.917969 12.726562 3.847656 12.65625 3.757812 12.65625 L 3.386719 12.65625 Z M 3.386719 13.753906 "/>
<path style=" stroke:none;fill-rule:nonzero;fill:rgb(20%,24.313725%,28.235294%);fill-opacity:1;" d="M 11.433594 9.59375 C 11.433594 9.347656 11.632812 9.144531 11.878906 9.144531 L 14.898438 9.144531 C 15.144531 9.144531 15.457031 9.3125 15.589844 9.519531 L 16.289062 10.59375 C 16.421875 10.800781 16.332031 10.96875 16.085938 10.96875 L 11.878906 10.96875 C 11.632812 10.96875 11.433594 10.765625 11.433594 10.519531 Z M 11.433594 9.59375 "/>
<path style=" stroke:none;fill-rule:nonzero;fill:rgb(0%,0%,0%);fill-opacity:1;" d="M 15.589844 9.519531 C 15.457031 9.3125 15.144531 9.144531 14.898438 9.144531 L 11.878906 9.144531 C 11.632812 9.144531 11.433594 9.347656 11.433594 9.59375 L 11.433594 10.011719 C 11.433594 9.765625 11.632812 9.5625 11.878906 9.5625 L 15.253906 9.5625 C 15.402344 9.5625 15.574219 9.625 15.71875 9.71875 Z M 15.589844 9.519531 "/>
<path style=" stroke:none;fill-rule:nonzero;fill:rgb(20%,24.313725%,28.235294%);fill-opacity:1;" d="M 6.929688 9.570312 C 7.003906 9.335938 7.269531 9.144531 7.515625 9.144531 L 10.0625 9.144531 C 10.308594 9.144531 10.507812 9.347656 10.507812 9.59375 L 10.507812 10.519531 C 10.507812 10.765625 10.308594 10.96875 10.0625 10.96875 L 6.925781 10.96875 C 6.679688 10.96875 6.539062 10.777344 6.613281 10.542969 Z M 6.929688 9.570312 "/>
<path style=" stroke:none;fill-rule:nonzero;fill:rgb(0%,0%,0%);fill-opacity:1;" d="M 10.058594 9.144531 L 7.511719 9.144531 C 7.265625 9.144531 7.003906 9.335938 6.925781 9.570312 L 6.851562 9.804688 C 6.96875 9.660156 7.15625 9.5625 7.332031 9.5625 L 10.058594 9.5625 C 10.304688 9.5625 10.503906 9.765625 10.503906 10.011719 L 10.503906 9.59375 C 10.507812 9.347656 10.304688 9.144531 10.058594 9.144531 Z M 10.058594 9.144531 "/>
<path style=" stroke:none;fill-rule:nonzero;fill:rgb(100%,34.901961%,34.901961%);fill-opacity:1;" d="M 12.546875 7.15625 C 12.546875 6.910156 12.347656 6.710938 12.101562 6.710938 L 9.925781 6.710938 C 9.679688 6.710938 9.476562 6.910156 9.476562 7.15625 L 9.476562 7.765625 C 9.476562 8.011719 9.679688 8.210938 9.925781 8.210938 L 12.101562 8.210938 C 12.347656 8.210938 12.546875 8.011719 12.546875 7.765625 Z M 12.546875 7.15625 "/>
<path style=" stroke:none;fill-rule:nonzero;fill:rgb(83.921569%,50.980392%,19.215686%);fill-opacity:1;" d="M 11.132812 13.734375 C 11.058594 13.707031 10.941406 13.707031 10.871094 13.734375 L 10.3125 13.933594 C 10.238281 13.960938 10.183594 13.917969 10.1875 13.839844 L 10.203125 13.25 C 10.203125 13.171875 10.167969 13.058594 10.121094 13 L 9.757812 12.53125 C 9.710938 12.46875 9.734375 12.402344 9.808594 12.378906 L 10.375 12.214844 C 10.449219 12.191406 10.542969 12.121094 10.589844 12.058594 L 10.925781 11.570312 C 10.96875 11.507812 11.039062 11.507812 11.082031 11.570312 L 11.417969 12.058594 C 11.460938 12.121094 11.554688 12.191406 11.628906 12.214844 L 12.195312 12.378906 C 12.269531 12.402344 12.292969 12.46875 12.246094 12.53125 L 11.886719 13 C 11.839844 13.058594 11.800781 13.171875 11.804688 13.25 L 11.820312 13.839844 C 11.820312 13.917969 11.761719 13.957031 11.691406 13.933594 Z M 11.132812 13.734375 "/>
<path style=" stroke:none;fill-rule:nonzero;fill:rgb(0%,0%,0%);fill-opacity:1;" d="M 8.972656 12.25 L 7.03125 12.25 C 6.847656 12.25 6.695312 12.101562 6.695312 11.914062 C 6.695312 11.730469 6.847656 11.582031 7.03125 11.582031 L 8.972656 11.582031 C 9.160156 11.582031 9.308594 11.730469 9.308594 11.914062 C 9.308594 12.101562 9.160156 12.25 8.972656 12.25 Z M 15.589844 12.25 L 13.199219 12.25 C 13.011719 12.25 12.863281 12.101562 12.863281 11.914062 C 12.863281 11.730469 13.011719 11.582031 13.199219 11.582031 L 15.589844 11.582031 C 15.773438 11.582031 15.921875 11.730469 15.921875 11.914062 C 15.921875 12.101562 15.773438 12.25 15.589844 12.25 Z M 15.589844 12.25 "/>
</g>
</svg>
