<?xml version="1.0" encoding="UTF-8"?>
<svg xmlns="http://www.w3.org/2000/svg" xmlns:xlink="http://www.w3.org/1999/xlink" width="24px" height="24px" viewBox="0 0 24 24" version="1.1">
<g id="surface1">
<path style=" stroke:none;fill-rule:nonzero;fill:rgb(0%,0%,0%);fill-opacity:1;" d="M 8.15625 0.976562 L 6.96875 3.5 L 4.296875 1.3125 L 5.558594 4.414062 L 2.703125 3.367188 L 4.871094 5.679688 L 1.828125 6.984375 L 6.328125 7.457031 L 6.328125 4.828125 L 10.339844 4.828125 L 11.070312 0.976562 L 8.816406 3.519531 Z M 12.929688 0.980469 L 13.660156 4.828125 L 17.671875 4.828125 L 17.671875 7.457031 L 22.171875 6.984375 L 19.128906 5.679688 L 21.289062 3.371094 L 18.441406 4.417969 L 19.703125 1.3125 L 17.03125 3.503906 L 15.84375 0.980469 L 15.183594 3.519531 Z M 7.171875 5.671875 L 7.171875 7.5 C 6.96875 7.527344 6.78125 7.554688 6.617188 7.589844 C 6.425781 7.625 6.257812 7.667969 6.113281 7.71875 C 5.960938 7.773438 5.835938 7.820312 5.699219 7.949219 L 5.628906 8.019531 L 4.355469 11.84375 C 3.761719 11.246094 3.136719 11.03125 2.605469 11.035156 C 1.226562 11.042969 0.492188 12.566406 2.605469 12.734375 C 2.753906 12.617188 2.910156 12.511719 3.078125 12.414062 C 3.6875 12.050781 4.421875 11.804688 5.300781 11.675781 L 6.351562 8.535156 C 6.367188 8.527344 6.371094 8.523438 6.390625 8.515625 C 6.476562 8.484375 6.613281 8.453125 6.78125 8.417969 C 7.117188 8.351562 7.578125 8.296875 8.125 8.25 C 9.207031 8.15625 10.601562 8.109375 12 8.109375 C 13.398438 8.109375 14.792969 8.15625 15.875 8.25 C 16.421875 8.296875 16.882812 8.351562 17.21875 8.417969 C 17.386719 8.453125 17.523438 8.484375 17.609375 8.515625 C 17.628906 8.523438 17.632812 8.527344 17.648438 8.535156 L 18.699219 11.675781 C 19.574219 11.804688 20.3125 12.050781 20.921875 12.414062 C 21.089844 12.511719 21.25 12.617188 21.394531 12.734375 C 23.507812 12.566406 22.777344 11.042969 21.394531 11.035156 C 20.863281 11.03125 20.242188 11.246094 19.644531 11.84375 L 18.371094 8.019531 L 18.300781 7.949219 C 18.164062 7.820312 18.039062 7.773438 17.886719 7.71875 C 17.742188 7.667969 17.574219 7.625 17.382812 7.589844 C 17.21875 7.554688 17.03125 7.527344 16.828125 7.5 L 16.828125 5.671875 L 13.921875 5.671875 L 13.921875 7.292969 C 13.644531 7.289062 13.363281 7.28125 13.078125 7.273438 L 13.078125 5.671875 L 10.921875 5.671875 L 10.921875 7.273438 C 10.636719 7.28125 10.355469 7.289062 10.078125 7.292969 L 10.078125 5.671875 Z M 6.75 12.421875 C 5.300781 12.421875 4.257812 12.695312 3.507812 13.132812 C 3.351562 13.226562 3.207031 13.332031 3.070312 13.4375 L 8.347656 16.078125 L 15.652344 16.078125 L 20.929688 13.4375 C 20.792969 13.332031 20.652344 13.226562 20.492188 13.132812 C 19.742188 12.695312 18.699219 12.421875 17.25 12.421875 Z M 2.460938 14.082031 C 2.269531 14.347656 2.113281 14.644531 1.988281 14.96875 C 1.417969 16.429688 1.53125 18.472656 1.863281 20.578125 L 6.523438 20.578125 L 7.828125 18.625 L 7.828125 16.761719 Z M 21.539062 14.082031 L 16.171875 16.761719 L 16.171875 18.625 L 17.476562 20.578125 L 22.140625 20.578125 C 22.46875 18.472656 22.578125 16.429688 22.011719 14.96875 C 21.886719 14.644531 21.730469 14.347656 21.539062 14.082031 Z M 3 15.75 L 6 16.5 L 6 18 L 2.253906 18 Z M 21 15.75 L 21.75 18 L 18 18 L 18 16.5 Z M 8.671875 16.921875 L 8.671875 18.328125 L 15.328125 18.328125 L 15.328125 16.921875 Z M 3.003906 19.078125 L 6 19.078125 L 6 19.921875 L 3.003906 19.921875 Z M 18 19.078125 L 21 19.078125 L 21 19.921875 L 18 19.921875 Z M 8.476562 19.171875 L 7.539062 20.578125 L 16.460938 20.578125 L 15.523438 19.171875 Z M 1.921875 21.421875 L 1.921875 22.828125 L 4.828125 22.828125 L 4.828125 21.421875 Z M 19.171875 21.421875 L 19.171875 22.828125 L 22.078125 22.828125 L 22.078125 21.421875 Z M 19.171875 21.421875 "/>
</g>
</svg>
