<?xml version="1.0" encoding="UTF-8"?>
<svg fill="none" xmlns="http://www.w3.org/2000/svg" xmlns:xlink="http://www.w3.org/1999/xlink" width="24px" height="24px" viewBox="0 0 24 24" version="1.1">
<g id="surface1">
<path style=" stroke:none;fill-rule:evenodd;fill:rgb(0%,0%,0%);fill-opacity:1;" d="M 12 16 C 9.808594 16 8.035156 14.210938 8.035156 12 C 8.035156 9.789062 9.808594 8 12 8 C 14.191406 8 15.96875 9.789062 15.96875 12 C 15.96875 14.210938 14.191406 16 12 16 Z M 23.207031 14.828125 L 21.347656 13.746094 C 21.453125 13.179688 21.519531 12.597656 21.519531 12 C 21.519531 11.402344 21.453125 10.820312 21.347656 10.253906 L 23.207031 9.171875 C 23.964844 8.730469 24.226562 7.75 23.785156 6.984375 L 22.199219 4.214844 C 21.761719 3.449219 20.792969 3.1875 20.03125 3.628906 L 18.15625 4.722656 C 17.277344 3.96875 16.28125 3.355469 15.171875 2.957031 L 15.171875 1.601562 C 15.171875 0.71875 14.464844 0 13.585938 0 L 10.414062 0 C 9.535156 0 8.828125 0.71875 8.828125 1.601562 L 8.828125 2.957031 C 7.71875 3.355469 6.722656 3.96875 5.84375 4.722656 L 3.96875 3.628906 C 3.207031 3.1875 2.238281 3.449219 1.800781 4.214844 L 0.214844 6.984375 C -0.226562 7.75 0.0351562 8.730469 0.792969 9.171875 L 2.652344 10.253906 C 2.546875 10.820312 2.480469 11.402344 2.480469 12 C 2.480469 12.597656 2.546875 13.179688 2.652344 13.746094 L 0.792969 14.828125 C 0.0351562 15.269531 -0.226562 16.25 0.214844 17.015625 L 1.800781 19.785156 C 2.238281 20.550781 3.207031 20.8125 3.96875 20.371094 L 5.84375 19.277344 C 6.722656 20.03125 7.71875 20.648438 8.828125 21.042969 L 8.828125 22.398438 C 8.828125 23.28125 9.535156 24 10.414062 24 L 13.585938 24 C 14.464844 24 15.171875 23.28125 15.171875 22.398438 L 15.171875 21.042969 C 16.28125 20.648438 17.277344 20.03125 18.15625 19.277344 L 20.03125 20.371094 C 20.792969 20.8125 21.761719 20.550781 22.199219 19.785156 L 23.785156 17.015625 C 24.226562 16.25 23.964844 15.269531 23.207031 14.828125 Z M 12 9.601562 C 10.6875 9.601562 9.621094 10.675781 9.621094 12 C 9.621094 13.324219 10.6875 14.398438 12 14.398438 C 13.3125 14.398438 14.378906 13.324219 14.378906 12 C 14.378906 10.675781 13.3125 9.601562 12 9.601562 Z M 12 9.601562 " fill="#7B8D9E"/>
</g>
</svg>
